<?xml version="1.0" encoding="UTF-8" standalone="no"?>
<!-- Created with Inkscape (http://www.inkscape.org/) -->

<svg
   version="1.1"
   id="svg2"
   xml:space="preserve"
   width="440"
   height="98.666664"
   viewBox="0 0 440 98.666664"
   sodipodi:docname="logo-unifil.eps"
   xmlns:inkscape="http://www.inkscape.org/namespaces/inkscape"
   xmlns:sodipodi="http://sodipodi.sourceforge.net/DTD/sodipodi-0.dtd"
   xmlns="http://www.w3.org/2000/svg"
   xmlns:svg="http://www.w3.org/2000/svg"><defs
     id="defs6" /><sodipodi:namedview
     id="namedview4"
     pagecolor="#ffffff"
     bordercolor="#666666"
     borderopacity="1.0"
     inkscape:pageshadow="2"
     inkscape:pageopacity="0.0"
     inkscape:pagecheckerboard="0" /><g
     id="g8"
     inkscape:groupmode="layer"
     inkscape:label="ink_ext_XXXXXX"
     transform="matrix(1.3333333,0,0,-1.3333333,0,98.666667)"><g
       id="g10"
       transform="scale(0.1)"><path
         d="m 330.41,357.852 1.762,2.828 1.84,3.379 1.777,3.402 1.652,3.508 1.571,3.492 1.418,3.648 1.34,3.68 1.121,3.789 1.097,3.742 0.934,3.879 0.707,3.852 0.66,3.91 0.531,4.039 0.321,3.988 0.25,4.114 0.089,4.988 -0.531,10.371 -1.66,11.09 -2.809,10.738 -3.789,10.301 -4.679,9.789 -5.66,9.223 -6.411,8.546 -7.121,7.922 -7.961,7.149 -8.609,6.429 -9.148,5.59 -9.793,4.703 -10.27,3.809 -10.809,2.77 -11.05,1.71 -9.93,0.52 H 32.7813 L 235.789,208.531 330.41,357.852"
         style="fill:#737779;fill-opacity:1;fill-rule:nonzero;stroke:none"
         id="path12" /><path
         d="m 104.539,575.359 0.281,-3.148 0.43,-3.051 0.48,-3.148 0.622,-3.082 0.726,-2.989 0.231,-1.05 h 421.242 l 0.07,-0.071 c 21.801,-0.621 39.32,-18.601 39.32,-40.531 v -2.148 l 0.598,-0.379 c 81.602,-8.043 156.481,-7.032 155.82,-98.434 h -0.121 c -5.66,6.961 -15.859,11.594 -27.359,11.594 h -1.117 L 588.441,429.52 C 522.551,429.84 449.75,337.891 387.359,238.23 l -40.531,-64.671 39.352,-62.118 2.531,-3.832 3.238,-4.32 3.563,-4.289 3.949,-4.0391 4.039,-3.7812 4.328,-3.5899 4.633,-3.2812 4.769,-2.9492 4.981,-2.668 5.16,-2.3906 5.449,-2.0625 5.45,-1.6875 5.691,-1.3203 5.859,-1 5.871,-0.6016 5.93,-0.1289 5.981,0.1289 5.91,0.6016 5.797,1 5.679,1.3203 5.453,1.6875 5.457,2.0625 5.204,2.3906 5,2.668 4.738,2.9492 4.59,3.2812 4.34,3.5899 4.109,3.8516 3.883,3.9687 3.558,4.289 3.121,4.09 2.579,3.883 268.402,423.386 1.359,2.313 1.528,2.641 1.441,2.789 1.281,2.687 1.25,2.852 1.098,2.879 1.051,2.972 0.941,2.918 0.859,2.961 0.692,3.129 0.656,3.039 0.481,3.192 0.339,3.171 0.301,3.129 0.231,3.192 0.019,3.968 -0.39,8.329 -1.348,8.793 -2.16,8.527 -3.082,8.199 -3.719,7.801 -4.43,7.262 -5.211,6.847 -5.648,6.293 -6.281,5.707 -6.801,5.09 -7.301,4.453 -7.789,3.758 -8.168,3.039 -8.582,2.172 -8.777,1.32 -7.942,0.43 H 192.078 l -8.047,-0.43 -8.761,-1.32 -8.61,-2.172 -8.211,-3.039 -7.687,-3.758 -7.352,-4.453 -6.851,-5.066 -6.27,-5.731 -5.66,-6.293 -5.141,-6.808 -4.429,-7.301 -3.758,-7.801 -2.973,-8.199 -2.258,-8.527 -1.34,-8.793 -0.39,-8.387 0.039,-3.91 0.16,-3.153"
         style="fill:#f08223;fill-opacity:1;fill-rule:nonzero;stroke:none"
         id="path14" /><path
         d="m 2924.42,70.7813 77.61,435.4377 H 2833.91 L 2756.32,70.7813 Z m -500.62,0 40.26,224.2577 209.7,-1.758 25.1,132.16 -210.98,1.758 20.13,104.77 h 263.76 l 26.06,136.332 H 2336.24 L 2226.26,70.7813 Z m -786.19,0 41.17,229.0977 c 5.32,28.73 14.26,49.93 26.93,63.672 12.69,13.648 29.57,20.558 50.71,20.558 16.4,0 29.3,-4.519 38.84,-13.531 9.56,-8.93 14.12,-20.68 13.64,-35.098 -0.13,-2.371 -0.34,-5.14 -0.61,-8.351 -0.46,-3.039 -1.3,-7.629 -2.65,-13.719 L 1763.33,70.7813 h 170.91 l 43.4,247.7187 c 1.96,10.52 3.47,20.68 4.63,30.172 1.08,9.629 1.9,18.418 2.15,26.308 1.39,42.149 -10.48,75.559 -35.97,100.411 -25.24,24.668 -60.33,37.089 -105.06,37.089 -28.73,0 -55.46,-5.5 -80.15,-16.691 -24.49,-11.219 -48.2,-28.609 -70.61,-52.027 l 9.68,56.547 H 1546.47 L 1466.84,70.7813 Z M 2240.32,506.23 H 2072.14 L 1994.59,70.7891 h 168.24 z M 3097.73,668.309 2996.61,70.7891 h 170.24 L 3267.22,668.309 Z M 1143.8,71.6914 c 173.5,0.6992 272.59,78.3396 303.06,242.7886 l 65.49,353.829 h -189.78 l -66.98,-346.438 c -7.78,-40.191 -19.39,-67.641 -35.03,-82.43 -30.07,-28.48 -101.75,-32.632 -131.67,-1.64 -13.35,13.711 -19.56,33.609 -18.6,59.738 0.16,4.731 0.36,9.289 0.98,13.723 0.57,4.449 1.44,8.847 2.42,13.457 l 66.09,343.59 H 948.469 L 887.539,359 c -2.711,-13.941 -4.5,-25.949 -5.68,-36.148 -1.14,-10.114 -1.898,-19.372 -2.218,-27.723 C 874.262,136.949 934.828,70.7695 1143.8,71.6914 Z M 2269.44,668.309 H 2101.36 L 2079.34,547.91 h 169.76 z m 761.76,0 H 2863.06 L 2841.04,547.91 h 169.85 l 20.31,120.399"
         style="fill:#737779;fill-opacity:1;fill-rule:nonzero;stroke:none"
         id="path16" /></g></g></svg>
